# xmcd
#
# Track frame offsets:
#	150
#	29729
#	60104
#	90345
#	135537
#	186706
#	256944
#
# Disc length: 4708 seconds
#
# Revision: 0
# Processed by: cddbd v1.5.2PL0 Copyright (c) Steve Scherf et al.
# Submitted via: audiograbber 1.83.01
#
DISCID=59126207
DTITLE=Grateful Dead - 93-12-18 Oakland Coliseum Arena, Oakland CA
DYEAR=1900
DGENRE=
TTITLE0=Way To Go Home
TTITLE1=China Cat Sunflower
TTITLE2=I Know You Rider
TTITLE3=Playing In The Band
TTITLE4=Uncle John's Band
TTITLE5=Drums
TTITLE6=Space
EXTD=
EXTT0=
EXTT1=
EXTT2=
EXTT3=
EXTT4=
EXTT5=
EXTT6=
PLAYORDER=
